<?xml version="1.0"?>
<!-- Generated by SVGo -->
<svg width="400" height="300"
     style="background-color: white;"
     data-margin="1"
     data-border="1"
     data-node-width="4"
     data-node-height="4"
     xmlns="http://www.w3.org/2000/svg"
     xmlns:xlink="http://www.w3.org/1999/xlink">
<g style="text-anchor:middle;font-family:sans;fill:none;stroke:black">
<defs>
<marker id="arrow" refX="10" refY="5" markerWidth="7" markerHeight="7" viewBox="0 0 10 10" fill="black" orient="auto-start-reverse" >
<path d="M 0 0 L 10 5 L 0 10 z" />
</marker>
</defs>
<rect x="40" y="100" width="60" height="60" rx="3" ry="3" id="node1"   data-pos-x="2" data-pos-y="5" data-width="4" data-height="4" />
<text x="70" y="130" id="node1-text" style="font-size:10px" >Start</text>
<rect x="300" y="40" width="60" height="60" rx="3" ry="3" id="node2"   data-pos-x="15" data-pos-y="2" data-width="4" data-height="4" />
<text x="330" y="70" id="node2-text" style="font-size:10px" >Top Right</text>
<rect x="300" y="200" width="60" height="60" rx="3" ry="3" id="node3"   data-pos-x="15" data-pos-y="10" data-width="4" data-height="4" />
<text x="330" y="230" id="node3-text" style="font-size:10px" >Bottom Right</text>
<rect x="160" y="120" width="60" height="60" rx="3" ry="3" id="node4"   data-pos-x="8" data-pos-y="6" data-width="4" data-height="4" />
<text x="190" y="150" id="node4-text" style="font-size:10px" >Center</text>
<path d="M 100 120 L 120 120 L 120 80 L 300 80" id="edge-1" class="path-line"  marker-end="url(#arrow)" data-from="node1" data-to="node2" />
<path d="M 80 160 L 80 220 L 300 220" id="edge-2" class="path-line"  marker-end="url(#arrow)" data-from="node1" data-to="node3" />
<path d="M 320 100 L 320 140 L 220 140" id="edge-3" class="path-line"  marker-end="url(#arrow)" data-from="node2" data-to="node4" />
<path d="M 320 200 L 320 160 L 220 160" id="edge-4" class="path-line"  marker-end="url(#arrow)" data-from="node3" data-to="node4" />
</g>
</svg>
