<?xml version="1.0"?>
<!-- Generated by SVGo -->
<svg width="720" height="540"
     style="background-color: white;"
     data-margin="2"
     data-border="2"
     data-node-width="7"
     data-node-height="4"
     xmlns="http://www.w3.org/2000/svg"
     xmlns:xlink="http://www.w3.org/1999/xlink">
<g style="text-anchor:middle;font-family:sans;fill:none;stroke:black">
<defs>
<marker id="arrow" refX="10" refY="5" markerWidth="7" markerHeight="7" viewBox="0 0 10 10" fill="black" orient="auto-start-reverse" >
<path d="M 0 0 L 10 5 L 0 10 z" />
</marker>
</defs>
<circle cx="40" cy="40" r="1" class="path-dot" />
<circle cx="40" cy="60" r="1" class="path-dot" />
<circle cx="40" cy="80" r="1" class="path-dot" />
<circle cx="40" cy="100" r="1" class="path-dot" />
<circle cx="40" cy="120" r="1" class="path-dot" />
<circle cx="40" cy="140" r="1" class="path-dot" />
<circle cx="40" cy="160" r="1" class="path-dot" />
<circle cx="40" cy="180" r="1" class="path-dot" />
<circle cx="40" cy="200" r="1" class="path-dot" />
<circle cx="40" cy="220" r="1" class="path-dot" />
<circle cx="40" cy="240" r="1" class="path-dot" />
<circle cx="40" cy="260" r="1" class="path-dot" />
<circle cx="40" cy="280" r="1" class="path-dot" />
<circle cx="40" cy="300" r="1" class="path-dot" />
<circle cx="40" cy="320" r="1" class="path-dot" />
<circle cx="40" cy="340" r="1" class="path-dot" />
<circle cx="40" cy="360" r="1" class="path-dot" />
<circle cx="40" cy="380" r="1" class="path-dot" />
<circle cx="40" cy="400" r="1" class="path-dot" />
<circle cx="40" cy="420" r="1" class="path-dot" />
<circle cx="40" cy="440" r="1" class="path-dot" />
<circle cx="40" cy="460" r="1" class="path-dot" />
<circle cx="40" cy="480" r="1" class="path-dot" />
<circle cx="40" cy="500" r="1" class="path-dot" />
<circle cx="60" cy="40" r="1" class="path-dot" />
<circle cx="60" cy="60" r="1" class="path-dot" />
<circle cx="60" cy="80" r="1" class="path-dot" />
<circle cx="60" cy="100" r="1" class="path-dot" />
<circle cx="60" cy="120" r="1" class="path-dot" />
<circle cx="60" cy="140" r="1" class="path-dot" />
<circle cx="60" cy="160" r="1" class="path-dot" />
<circle cx="60" cy="180" r="1" class="path-dot" />
<circle cx="60" cy="200" r="1" class="path-dot" />
<circle cx="60" cy="220" r="1" class="path-dot" />
<circle cx="60" cy="240" r="1" class="path-dot" />
<circle cx="60" cy="260" r="1" class="path-dot" />
<circle cx="60" cy="280" r="1" class="path-dot" />
<circle cx="60" cy="300" r="1" class="path-dot" />
<circle cx="60" cy="320" r="1" class="path-dot" />
<circle cx="60" cy="340" r="1" class="path-dot" />
<circle cx="60" cy="360" r="1" class="path-dot" />
<circle cx="60" cy="380" r="1" class="path-dot" />
<circle cx="60" cy="400" r="1" class="path-dot" />
<circle cx="60" cy="420" r="1" class="path-dot" />
<circle cx="60" cy="440" r="1" class="path-dot" />
<circle cx="60" cy="460" r="1" class="path-dot" />
<circle cx="60" cy="480" r="1" class="path-dot" />
<circle cx="60" cy="500" r="1" class="path-dot" />
<circle cx="80" cy="40" r="1" class="path-dot" />
<circle cx="80" cy="60" r="1" class="path-dot" />
<circle cx="80" cy="100" r="1" class="path-dot" />
<circle cx="80" cy="120" r="1" class="path-dot" />
<circle cx="80" cy="160" r="1" class="path-dot" />
<circle cx="80" cy="180" r="1" class="path-dot" />
<circle cx="80" cy="200" r="1" class="path-dot" />
<circle cx="80" cy="220" r="1" class="path-dot" />
<circle cx="80" cy="260" r="1" class="path-dot" />
<circle cx="80" cy="280" r="1" class="path-dot" />
<circle cx="80" cy="320" r="1" class="path-dot" />
<circle cx="80" cy="340" r="1" class="path-dot" />
<circle cx="80" cy="360" r="1" class="path-dot" />
<circle cx="80" cy="380" r="1" class="path-dot" />
<circle cx="80" cy="420" r="1" class="path-dot" />
<circle cx="80" cy="440" r="1" class="path-dot" />
<circle cx="80" cy="480" r="1" class="path-dot" />
<circle cx="80" cy="500" r="1" class="path-dot" />
<circle cx="100" cy="40" r="1" class="path-dot" />
<circle cx="100" cy="60" r="1" class="path-dot" />
<circle cx="100" cy="80" r="1" class="path-dot" />
<circle cx="100" cy="140" r="1" class="path-dot" />
<circle cx="100" cy="160" r="1" class="path-dot" />
<circle cx="100" cy="180" r="1" class="path-dot" />
<circle cx="100" cy="200" r="1" class="path-dot" />
<circle cx="100" cy="220" r="1" class="path-dot" />
<circle cx="100" cy="240" r="1" class="path-dot" />
<circle cx="100" cy="300" r="1" class="path-dot" />
<circle cx="100" cy="320" r="1" class="path-dot" />
<circle cx="100" cy="340" r="1" class="path-dot" />
<circle cx="100" cy="360" r="1" class="path-dot" />
<circle cx="100" cy="380" r="1" class="path-dot" />
<circle cx="100" cy="400" r="1" class="path-dot" />
<circle cx="100" cy="460" r="1" class="path-dot" />
<circle cx="100" cy="480" r="1" class="path-dot" />
<circle cx="100" cy="500" r="1" class="path-dot" />
<circle cx="120" cy="40" r="1" class="path-dot" />
<circle cx="120" cy="60" r="1" class="path-dot" />
<circle cx="120" cy="80" r="1" class="path-dot" />
<circle cx="120" cy="140" r="1" class="path-dot" />
<circle cx="120" cy="160" r="1" class="path-dot" />
<circle cx="120" cy="180" r="1" class="path-dot" />
<circle cx="120" cy="200" r="1" class="path-dot" />
<circle cx="120" cy="220" r="1" class="path-dot" />
<circle cx="120" cy="240" r="1" class="path-dot" />
<circle cx="120" cy="300" r="1" class="path-dot" />
<circle cx="120" cy="320" r="1" class="path-dot" />
<circle cx="120" cy="340" r="1" class="path-dot" />
<circle cx="120" cy="360" r="1" class="path-dot" />
<circle cx="120" cy="380" r="1" class="path-dot" />
<circle cx="120" cy="400" r="1" class="path-dot" />
<circle cx="120" cy="460" r="1" class="path-dot" />
<circle cx="120" cy="480" r="1" class="path-dot" />
<circle cx="120" cy="500" r="1" class="path-dot" />
<circle cx="140" cy="40" r="1" class="path-dot" />
<circle cx="140" cy="60" r="1" class="path-dot" />
<circle cx="140" cy="80" r="1" class="path-dot" />
<circle cx="140" cy="140" r="1" class="path-dot" />
<circle cx="140" cy="160" r="1" class="path-dot" />
<circle cx="140" cy="180" r="1" class="path-dot" />
<circle cx="140" cy="200" r="1" class="path-dot" />
<circle cx="140" cy="220" r="1" class="path-dot" />
<circle cx="140" cy="240" r="1" class="path-dot" />
<circle cx="140" cy="300" r="1" class="path-dot" />
<circle cx="140" cy="320" r="1" class="path-dot" />
<circle cx="140" cy="340" r="1" class="path-dot" />
<circle cx="140" cy="360" r="1" class="path-dot" />
<circle cx="140" cy="380" r="1" class="path-dot" />
<circle cx="140" cy="400" r="1" class="path-dot" />
<circle cx="140" cy="460" r="1" class="path-dot" />
<circle cx="140" cy="480" r="1" class="path-dot" />
<circle cx="140" cy="500" r="1" class="path-dot" />
<circle cx="160" cy="40" r="1" class="path-dot" />
<circle cx="160" cy="60" r="1" class="path-dot" />
<circle cx="160" cy="80" r="1" class="path-dot" />
<circle cx="160" cy="140" r="1" class="path-dot" />
<circle cx="160" cy="160" r="1" class="path-dot" />
<circle cx="160" cy="180" r="1" class="path-dot" />
<circle cx="160" cy="200" r="1" class="path-dot" />
<circle cx="160" cy="220" r="1" class="path-dot" />
<circle cx="160" cy="240" r="1" class="path-dot" />
<circle cx="160" cy="300" r="1" class="path-dot" />
<circle cx="160" cy="320" r="1" class="path-dot" />
<circle cx="160" cy="340" r="1" class="path-dot" />
<circle cx="160" cy="360" r="1" class="path-dot" />
<circle cx="160" cy="380" r="1" class="path-dot" />
<circle cx="160" cy="400" r="1" class="path-dot" />
<circle cx="160" cy="460" r="1" class="path-dot" />
<circle cx="160" cy="480" r="1" class="path-dot" />
<circle cx="160" cy="500" r="1" class="path-dot" />
<circle cx="180" cy="40" r="1" class="path-dot" />
<circle cx="180" cy="60" r="1" class="path-dot" />
<circle cx="180" cy="80" r="1" class="path-dot" />
<circle cx="180" cy="140" r="1" class="path-dot" />
<circle cx="180" cy="500" r="1" class="path-dot" />
<circle cx="200" cy="40" r="1" class="path-dot" />
<circle cx="200" cy="60" r="1" class="path-dot" />
<circle cx="200" cy="100" r="1" class="path-dot" />
<circle cx="200" cy="180" r="1" class="path-dot" />
<circle cx="200" cy="200" r="1" class="path-dot" />
<circle cx="200" cy="220" r="1" class="path-dot" />
<circle cx="200" cy="360" r="1" class="path-dot" />
<circle cx="200" cy="380" r="1" class="path-dot" />
<circle cx="200" cy="420" r="1" class="path-dot" />
<circle cx="200" cy="440" r="1" class="path-dot" />
<circle cx="200" cy="500" r="1" class="path-dot" />
<circle cx="220" cy="40" r="1" class="path-dot" />
<circle cx="220" cy="60" r="1" class="path-dot" />
<circle cx="220" cy="80" r="1" class="path-dot" />
<circle cx="220" cy="100" r="1" class="path-dot" />
<circle cx="220" cy="140" r="1" class="path-dot" />
<circle cx="220" cy="180" r="1" class="path-dot" />
<circle cx="220" cy="200" r="1" class="path-dot" />
<circle cx="220" cy="220" r="1" class="path-dot" />
<circle cx="220" cy="240" r="1" class="path-dot" />
<circle cx="220" cy="300" r="1" class="path-dot" />
<circle cx="220" cy="360" r="1" class="path-dot" />
<circle cx="220" cy="380" r="1" class="path-dot" />
<circle cx="220" cy="400" r="1" class="path-dot" />
<circle cx="220" cy="420" r="1" class="path-dot" />
<circle cx="220" cy="440" r="1" class="path-dot" />
<circle cx="220" cy="460" r="1" class="path-dot" />
<circle cx="220" cy="500" r="1" class="path-dot" />
<circle cx="240" cy="40" r="1" class="path-dot" />
<circle cx="240" cy="60" r="1" class="path-dot" />
<circle cx="240" cy="80" r="1" class="path-dot" />
<circle cx="240" cy="100" r="1" class="path-dot" />
<circle cx="240" cy="140" r="1" class="path-dot" />
<circle cx="240" cy="180" r="1" class="path-dot" />
<circle cx="240" cy="200" r="1" class="path-dot" />
<circle cx="240" cy="220" r="1" class="path-dot" />
<circle cx="240" cy="240" r="1" class="path-dot" />
<circle cx="240" cy="300" r="1" class="path-dot" />
<circle cx="240" cy="360" r="1" class="path-dot" />
<circle cx="240" cy="380" r="1" class="path-dot" />
<circle cx="240" cy="400" r="1" class="path-dot" />
<circle cx="240" cy="420" r="1" class="path-dot" />
<circle cx="240" cy="440" r="1" class="path-dot" />
<circle cx="240" cy="460" r="1" class="path-dot" />
<circle cx="240" cy="500" r="1" class="path-dot" />
<circle cx="260" cy="40" r="1" class="path-dot" />
<circle cx="260" cy="60" r="1" class="path-dot" />
<circle cx="260" cy="80" r="1" class="path-dot" />
<circle cx="260" cy="100" r="1" class="path-dot" />
<circle cx="260" cy="140" r="1" class="path-dot" />
<circle cx="260" cy="180" r="1" class="path-dot" />
<circle cx="260" cy="200" r="1" class="path-dot" />
<circle cx="260" cy="220" r="1" class="path-dot" />
<circle cx="260" cy="240" r="1" class="path-dot" />
<circle cx="260" cy="300" r="1" class="path-dot" />
<circle cx="260" cy="360" r="1" class="path-dot" />
<circle cx="260" cy="380" r="1" class="path-dot" />
<circle cx="260" cy="400" r="1" class="path-dot" />
<circle cx="260" cy="420" r="1" class="path-dot" />
<circle cx="260" cy="440" r="1" class="path-dot" />
<circle cx="260" cy="460" r="1" class="path-dot" />
<circle cx="260" cy="500" r="1" class="path-dot" />
<circle cx="280" cy="40" r="1" class="path-dot" />
<circle cx="280" cy="60" r="1" class="path-dot" />
<circle cx="280" cy="80" r="1" class="path-dot" />
<circle cx="280" cy="100" r="1" class="path-dot" />
<circle cx="280" cy="140" r="1" class="path-dot" />
<circle cx="280" cy="180" r="1" class="path-dot" />
<circle cx="280" cy="200" r="1" class="path-dot" />
<circle cx="280" cy="220" r="1" class="path-dot" />
<circle cx="280" cy="240" r="1" class="path-dot" />
<circle cx="280" cy="300" r="1" class="path-dot" />
<circle cx="280" cy="360" r="1" class="path-dot" />
<circle cx="280" cy="380" r="1" class="path-dot" />
<circle cx="280" cy="400" r="1" class="path-dot" />
<circle cx="280" cy="420" r="1" class="path-dot" />
<circle cx="280" cy="440" r="1" class="path-dot" />
<circle cx="280" cy="460" r="1" class="path-dot" />
<circle cx="280" cy="500" r="1" class="path-dot" />
<circle cx="300" cy="40" r="1" class="path-dot" />
<circle cx="300" cy="60" r="1" class="path-dot" />
<circle cx="300" cy="100" r="1" class="path-dot" />
<circle cx="300" cy="180" r="1" class="path-dot" />
<circle cx="300" cy="200" r="1" class="path-dot" />
<circle cx="300" cy="220" r="1" class="path-dot" />
<circle cx="300" cy="360" r="1" class="path-dot" />
<circle cx="300" cy="380" r="1" class="path-dot" />
<circle cx="300" cy="420" r="1" class="path-dot" />
<circle cx="300" cy="440" r="1" class="path-dot" />
<circle cx="300" cy="500" r="1" class="path-dot" />
<circle cx="320" cy="40" r="1" class="path-dot" />
<circle cx="320" cy="60" r="1" class="path-dot" />
<circle cx="320" cy="80" r="1" class="path-dot" />
<circle cx="320" cy="140" r="1" class="path-dot" />
<circle cx="320" cy="180" r="1" class="path-dot" />
<circle cx="320" cy="200" r="1" class="path-dot" />
<circle cx="320" cy="220" r="1" class="path-dot" />
<circle cx="320" cy="240" r="1" class="path-dot" />
<circle cx="320" cy="300" r="1" class="path-dot" />
<circle cx="320" cy="360" r="1" class="path-dot" />
<circle cx="320" cy="380" r="1" class="path-dot" />
<circle cx="320" cy="400" r="1" class="path-dot" />
<circle cx="320" cy="460" r="1" class="path-dot" />
<circle cx="320" cy="500" r="1" class="path-dot" />
<circle cx="340" cy="40" r="1" class="path-dot" />
<circle cx="340" cy="60" r="1" class="path-dot" />
<circle cx="340" cy="80" r="1" class="path-dot" />
<circle cx="340" cy="140" r="1" class="path-dot" />
<circle cx="340" cy="180" r="1" class="path-dot" />
<circle cx="340" cy="200" r="1" class="path-dot" />
<circle cx="340" cy="220" r="1" class="path-dot" />
<circle cx="340" cy="240" r="1" class="path-dot" />
<circle cx="340" cy="300" r="1" class="path-dot" />
<circle cx="340" cy="360" r="1" class="path-dot" />
<circle cx="340" cy="380" r="1" class="path-dot" />
<circle cx="340" cy="400" r="1" class="path-dot" />
<circle cx="340" cy="460" r="1" class="path-dot" />
<circle cx="340" cy="500" r="1" class="path-dot" />
<circle cx="360" cy="40" r="1" class="path-dot" />
<circle cx="360" cy="60" r="1" class="path-dot" />
<circle cx="360" cy="80" r="1" class="path-dot" />
<circle cx="360" cy="140" r="1" class="path-dot" />
<circle cx="360" cy="180" r="1" class="path-dot" />
<circle cx="360" cy="200" r="1" class="path-dot" />
<circle cx="360" cy="220" r="1" class="path-dot" />
<circle cx="360" cy="240" r="1" class="path-dot" />
<circle cx="360" cy="300" r="1" class="path-dot" />
<circle cx="360" cy="360" r="1" class="path-dot" />
<circle cx="360" cy="380" r="1" class="path-dot" />
<circle cx="360" cy="400" r="1" class="path-dot" />
<circle cx="360" cy="460" r="1" class="path-dot" />
<circle cx="360" cy="500" r="1" class="path-dot" />
<circle cx="380" cy="40" r="1" class="path-dot" />
<circle cx="380" cy="60" r="1" class="path-dot" />
<circle cx="380" cy="80" r="1" class="path-dot" />
<circle cx="380" cy="140" r="1" class="path-dot" />
<circle cx="380" cy="180" r="1" class="path-dot" />
<circle cx="380" cy="200" r="1" class="path-dot" />
<circle cx="380" cy="220" r="1" class="path-dot" />
<circle cx="380" cy="240" r="1" class="path-dot" />
<circle cx="380" cy="300" r="1" class="path-dot" />
<circle cx="380" cy="360" r="1" class="path-dot" />
<circle cx="380" cy="380" r="1" class="path-dot" />
<circle cx="380" cy="400" r="1" class="path-dot" />
<circle cx="380" cy="460" r="1" class="path-dot" />
<circle cx="380" cy="500" r="1" class="path-dot" />
<circle cx="400" cy="40" r="1" class="path-dot" />
<circle cx="400" cy="60" r="1" class="path-dot" />
<circle cx="400" cy="80" r="1" class="path-dot" />
<circle cx="400" cy="140" r="1" class="path-dot" />
<circle cx="400" cy="300" r="1" class="path-dot" />
<circle cx="400" cy="460" r="1" class="path-dot" />
<circle cx="400" cy="500" r="1" class="path-dot" />
<circle cx="420" cy="40" r="1" class="path-dot" />
<circle cx="420" cy="60" r="1" class="path-dot" />
<circle cx="420" cy="100" r="1" class="path-dot" />
<circle cx="420" cy="200" r="1" class="path-dot" />
<circle cx="420" cy="220" r="1" class="path-dot" />
<circle cx="420" cy="260" r="1" class="path-dot" />
<circle cx="420" cy="280" r="1" class="path-dot" />
<circle cx="420" cy="380" r="1" class="path-dot" />
<circle cx="420" cy="420" r="1" class="path-dot" />
<circle cx="420" cy="440" r="1" class="path-dot" />
<circle cx="420" cy="500" r="1" class="path-dot" />
<circle cx="440" cy="40" r="1" class="path-dot" />
<circle cx="440" cy="60" r="1" class="path-dot" />
<circle cx="440" cy="80" r="1" class="path-dot" />
<circle cx="440" cy="100" r="1" class="path-dot" />
<circle cx="440" cy="140" r="1" class="path-dot" />
<circle cx="440" cy="200" r="1" class="path-dot" />
<circle cx="440" cy="220" r="1" class="path-dot" />
<circle cx="440" cy="240" r="1" class="path-dot" />
<circle cx="440" cy="260" r="1" class="path-dot" />
<circle cx="440" cy="280" r="1" class="path-dot" />
<circle cx="440" cy="300" r="1" class="path-dot" />
<circle cx="440" cy="380" r="1" class="path-dot" />
<circle cx="440" cy="400" r="1" class="path-dot" />
<circle cx="440" cy="420" r="1" class="path-dot" />
<circle cx="440" cy="440" r="1" class="path-dot" />
<circle cx="440" cy="460" r="1" class="path-dot" />
<circle cx="440" cy="500" r="1" class="path-dot" />
<circle cx="460" cy="40" r="1" class="path-dot" />
<circle cx="460" cy="60" r="1" class="path-dot" />
<circle cx="460" cy="80" r="1" class="path-dot" />
<circle cx="460" cy="100" r="1" class="path-dot" />
<circle cx="460" cy="140" r="1" class="path-dot" />
<circle cx="460" cy="200" r="1" class="path-dot" />
<circle cx="460" cy="220" r="1" class="path-dot" />
<circle cx="460" cy="240" r="1" class="path-dot" />
<circle cx="460" cy="260" r="1" class="path-dot" />
<circle cx="460" cy="280" r="1" class="path-dot" />
<circle cx="460" cy="300" r="1" class="path-dot" />
<circle cx="460" cy="380" r="1" class="path-dot" />
<circle cx="460" cy="400" r="1" class="path-dot" />
<circle cx="460" cy="420" r="1" class="path-dot" />
<circle cx="460" cy="440" r="1" class="path-dot" />
<circle cx="460" cy="460" r="1" class="path-dot" />
<circle cx="460" cy="500" r="1" class="path-dot" />
<circle cx="480" cy="40" r="1" class="path-dot" />
<circle cx="480" cy="60" r="1" class="path-dot" />
<circle cx="480" cy="80" r="1" class="path-dot" />
<circle cx="480" cy="100" r="1" class="path-dot" />
<circle cx="480" cy="140" r="1" class="path-dot" />
<circle cx="480" cy="200" r="1" class="path-dot" />
<circle cx="480" cy="220" r="1" class="path-dot" />
<circle cx="480" cy="240" r="1" class="path-dot" />
<circle cx="480" cy="260" r="1" class="path-dot" />
<circle cx="480" cy="280" r="1" class="path-dot" />
<circle cx="480" cy="300" r="1" class="path-dot" />
<circle cx="480" cy="380" r="1" class="path-dot" />
<circle cx="480" cy="400" r="1" class="path-dot" />
<circle cx="480" cy="420" r="1" class="path-dot" />
<circle cx="480" cy="440" r="1" class="path-dot" />
<circle cx="480" cy="460" r="1" class="path-dot" />
<circle cx="480" cy="500" r="1" class="path-dot" />
<circle cx="500" cy="40" r="1" class="path-dot" />
<circle cx="500" cy="60" r="1" class="path-dot" />
<circle cx="500" cy="80" r="1" class="path-dot" />
<circle cx="500" cy="100" r="1" class="path-dot" />
<circle cx="500" cy="140" r="1" class="path-dot" />
<circle cx="500" cy="200" r="1" class="path-dot" />
<circle cx="500" cy="220" r="1" class="path-dot" />
<circle cx="500" cy="240" r="1" class="path-dot" />
<circle cx="500" cy="260" r="1" class="path-dot" />
<circle cx="500" cy="280" r="1" class="path-dot" />
<circle cx="500" cy="300" r="1" class="path-dot" />
<circle cx="500" cy="380" r="1" class="path-dot" />
<circle cx="500" cy="400" r="1" class="path-dot" />
<circle cx="500" cy="420" r="1" class="path-dot" />
<circle cx="500" cy="440" r="1" class="path-dot" />
<circle cx="500" cy="460" r="1" class="path-dot" />
<circle cx="500" cy="500" r="1" class="path-dot" />
<circle cx="520" cy="40" r="1" class="path-dot" />
<circle cx="520" cy="60" r="1" class="path-dot" />
<circle cx="520" cy="100" r="1" class="path-dot" />
<circle cx="520" cy="200" r="1" class="path-dot" />
<circle cx="520" cy="220" r="1" class="path-dot" />
<circle cx="520" cy="260" r="1" class="path-dot" />
<circle cx="520" cy="280" r="1" class="path-dot" />
<circle cx="520" cy="380" r="1" class="path-dot" />
<circle cx="520" cy="420" r="1" class="path-dot" />
<circle cx="520" cy="440" r="1" class="path-dot" />
<circle cx="520" cy="500" r="1" class="path-dot" />
<circle cx="540" cy="40" r="1" class="path-dot" />
<circle cx="540" cy="60" r="1" class="path-dot" />
<circle cx="540" cy="80" r="1" class="path-dot" />
<circle cx="540" cy="200" r="1" class="path-dot" />
<circle cx="540" cy="220" r="1" class="path-dot" />
<circle cx="540" cy="240" r="1" class="path-dot" />
<circle cx="540" cy="380" r="1" class="path-dot" />
<circle cx="540" cy="400" r="1" class="path-dot" />
<circle cx="540" cy="500" r="1" class="path-dot" />
<circle cx="560" cy="40" r="1" class="path-dot" />
<circle cx="560" cy="60" r="1" class="path-dot" />
<circle cx="560" cy="80" r="1" class="path-dot" />
<circle cx="560" cy="200" r="1" class="path-dot" />
<circle cx="560" cy="220" r="1" class="path-dot" />
<circle cx="560" cy="240" r="1" class="path-dot" />
<circle cx="560" cy="380" r="1" class="path-dot" />
<circle cx="560" cy="400" r="1" class="path-dot" />
<circle cx="560" cy="460" r="1" class="path-dot" />
<circle cx="560" cy="480" r="1" class="path-dot" />
<circle cx="560" cy="500" r="1" class="path-dot" />
<circle cx="580" cy="40" r="1" class="path-dot" />
<circle cx="580" cy="60" r="1" class="path-dot" />
<circle cx="580" cy="80" r="1" class="path-dot" />
<circle cx="580" cy="140" r="1" class="path-dot" />
<circle cx="580" cy="160" r="1" class="path-dot" />
<circle cx="580" cy="180" r="1" class="path-dot" />
<circle cx="580" cy="200" r="1" class="path-dot" />
<circle cx="580" cy="220" r="1" class="path-dot" />
<circle cx="580" cy="240" r="1" class="path-dot" />
<circle cx="580" cy="380" r="1" class="path-dot" />
<circle cx="580" cy="400" r="1" class="path-dot" />
<circle cx="580" cy="460" r="1" class="path-dot" />
<circle cx="580" cy="480" r="1" class="path-dot" />
<circle cx="580" cy="500" r="1" class="path-dot" />
<circle cx="600" cy="40" r="1" class="path-dot" />
<circle cx="600" cy="60" r="1" class="path-dot" />
<circle cx="600" cy="80" r="1" class="path-dot" />
<circle cx="600" cy="140" r="1" class="path-dot" />
<circle cx="600" cy="160" r="1" class="path-dot" />
<circle cx="600" cy="180" r="1" class="path-dot" />
<circle cx="600" cy="200" r="1" class="path-dot" />
<circle cx="600" cy="220" r="1" class="path-dot" />
<circle cx="600" cy="240" r="1" class="path-dot" />
<circle cx="600" cy="300" r="1" class="path-dot" />
<circle cx="600" cy="320" r="1" class="path-dot" />
<circle cx="600" cy="340" r="1" class="path-dot" />
<circle cx="600" cy="360" r="1" class="path-dot" />
<circle cx="600" cy="380" r="1" class="path-dot" />
<circle cx="600" cy="400" r="1" class="path-dot" />
<circle cx="600" cy="460" r="1" class="path-dot" />
<circle cx="600" cy="480" r="1" class="path-dot" />
<circle cx="600" cy="500" r="1" class="path-dot" />
<circle cx="620" cy="40" r="1" class="path-dot" />
<circle cx="620" cy="60" r="1" class="path-dot" />
<circle cx="620" cy="80" r="1" class="path-dot" />
<circle cx="620" cy="140" r="1" class="path-dot" />
<circle cx="620" cy="160" r="1" class="path-dot" />
<circle cx="620" cy="180" r="1" class="path-dot" />
<circle cx="620" cy="200" r="1" class="path-dot" />
<circle cx="620" cy="220" r="1" class="path-dot" />
<circle cx="620" cy="240" r="1" class="path-dot" />
<circle cx="620" cy="300" r="1" class="path-dot" />
<circle cx="620" cy="320" r="1" class="path-dot" />
<circle cx="620" cy="340" r="1" class="path-dot" />
<circle cx="620" cy="360" r="1" class="path-dot" />
<circle cx="620" cy="380" r="1" class="path-dot" />
<circle cx="620" cy="400" r="1" class="path-dot" />
<circle cx="620" cy="460" r="1" class="path-dot" />
<circle cx="620" cy="480" r="1" class="path-dot" />
<circle cx="620" cy="500" r="1" class="path-dot" />
<circle cx="640" cy="40" r="1" class="path-dot" />
<circle cx="640" cy="60" r="1" class="path-dot" />
<circle cx="640" cy="100" r="1" class="path-dot" />
<circle cx="640" cy="120" r="1" class="path-dot" />
<circle cx="640" cy="160" r="1" class="path-dot" />
<circle cx="640" cy="180" r="1" class="path-dot" />
<circle cx="640" cy="200" r="1" class="path-dot" />
<circle cx="640" cy="220" r="1" class="path-dot" />
<circle cx="640" cy="260" r="1" class="path-dot" />
<circle cx="640" cy="280" r="1" class="path-dot" />
<circle cx="640" cy="320" r="1" class="path-dot" />
<circle cx="640" cy="340" r="1" class="path-dot" />
<circle cx="640" cy="360" r="1" class="path-dot" />
<circle cx="640" cy="380" r="1" class="path-dot" />
<circle cx="640" cy="420" r="1" class="path-dot" />
<circle cx="640" cy="440" r="1" class="path-dot" />
<circle cx="640" cy="480" r="1" class="path-dot" />
<circle cx="640" cy="500" r="1" class="path-dot" />
<circle cx="660" cy="40" r="1" class="path-dot" />
<circle cx="660" cy="60" r="1" class="path-dot" />
<circle cx="660" cy="80" r="1" class="path-dot" />
<circle cx="660" cy="100" r="1" class="path-dot" />
<circle cx="660" cy="120" r="1" class="path-dot" />
<circle cx="660" cy="140" r="1" class="path-dot" />
<circle cx="660" cy="160" r="1" class="path-dot" />
<circle cx="660" cy="180" r="1" class="path-dot" />
<circle cx="660" cy="200" r="1" class="path-dot" />
<circle cx="660" cy="220" r="1" class="path-dot" />
<circle cx="660" cy="240" r="1" class="path-dot" />
<circle cx="660" cy="260" r="1" class="path-dot" />
<circle cx="660" cy="280" r="1" class="path-dot" />
<circle cx="660" cy="300" r="1" class="path-dot" />
<circle cx="660" cy="320" r="1" class="path-dot" />
<circle cx="660" cy="340" r="1" class="path-dot" />
<circle cx="660" cy="360" r="1" class="path-dot" />
<circle cx="660" cy="380" r="1" class="path-dot" />
<circle cx="660" cy="400" r="1" class="path-dot" />
<circle cx="660" cy="420" r="1" class="path-dot" />
<circle cx="660" cy="440" r="1" class="path-dot" />
<circle cx="660" cy="460" r="1" class="path-dot" />
<circle cx="660" cy="480" r="1" class="path-dot" />
<circle cx="660" cy="500" r="1" class="path-dot" />
<circle cx="680" cy="40" r="1" class="path-dot" />
<circle cx="680" cy="60" r="1" class="path-dot" />
<circle cx="680" cy="80" r="1" class="path-dot" />
<circle cx="680" cy="100" r="1" class="path-dot" />
<circle cx="680" cy="120" r="1" class="path-dot" />
<circle cx="680" cy="140" r="1" class="path-dot" />
<circle cx="680" cy="160" r="1" class="path-dot" />
<circle cx="680" cy="180" r="1" class="path-dot" />
<circle cx="680" cy="200" r="1" class="path-dot" />
<circle cx="680" cy="220" r="1" class="path-dot" />
<circle cx="680" cy="240" r="1" class="path-dot" />
<circle cx="680" cy="260" r="1" class="path-dot" />
<circle cx="680" cy="280" r="1" class="path-dot" />
<circle cx="680" cy="300" r="1" class="path-dot" />
<circle cx="680" cy="320" r="1" class="path-dot" />
<circle cx="680" cy="340" r="1" class="path-dot" />
<circle cx="680" cy="360" r="1" class="path-dot" />
<circle cx="680" cy="380" r="1" class="path-dot" />
<circle cx="680" cy="400" r="1" class="path-dot" />
<circle cx="680" cy="420" r="1" class="path-dot" />
<circle cx="680" cy="440" r="1" class="path-dot" />
<circle cx="680" cy="460" r="1" class="path-dot" />
<circle cx="680" cy="480" r="1" class="path-dot" />
<circle cx="680" cy="500" r="1" class="path-dot" />
<rect x="80" y="80" width="120" height="60" rx="3" ry="3" id="a"   data-pos-x="4" data-pos-y="4" data-width="7" data-height="4" />
<text x="140" y="110" id="a-text" style="font-size:10px" >Node A</text>
<rect x="300" y="80" width="120" height="60" rx="3" ry="3" id="b"   data-pos-x="15" data-pos-y="4" data-width="7" data-height="4" />
<text x="360" y="110" id="b-text" style="font-size:10px" >Node B</text>
<rect x="520" y="80" width="120" height="60" rx="3" ry="3" id="c"   data-pos-x="26" data-pos-y="4" data-width="7" data-height="4" />
<text x="580" y="110" id="c-text" style="font-size:10px" >Node C</text>
<rect x="80" y="240" width="120" height="60" rx="3" ry="3" id="d"   data-pos-x="4" data-pos-y="12" data-width="7" data-height="4" />
<text x="140" y="270" id="d-text" style="font-size:10px" >Node D</text>
<rect x="300" y="240" width="120" height="60" rx="3" ry="3" id="e"   data-pos-x="15" data-pos-y="12" data-width="7" data-height="4" />
<text x="360" y="270" id="e-text" style="font-size:10px" >Node E</text>
<rect x="520" y="240" width="120" height="60" rx="3" ry="3" id="f"   data-pos-x="26" data-pos-y="12" data-width="7" data-height="4" />
<text x="580" y="270" id="f-text" style="font-size:10px" >Node F</text>
<rect x="80" y="400" width="120" height="60" rx="3" ry="3" id="g"   data-pos-x="4" data-pos-y="20" data-width="7" data-height="4" />
<text x="140" y="430" id="g-text" style="font-size:10px" >Node G</text>
<rect x="300" y="400" width="120" height="60" rx="3" ry="3" id="h"   data-pos-x="15" data-pos-y="20" data-width="7" data-height="4" />
<text x="360" y="430" id="h-text" style="font-size:10px" >Node H</text>
<rect x="520" y="400" width="120" height="60" rx="3" ry="3" id="i"   data-pos-x="26" data-pos-y="20" data-width="7" data-height="4" />
<text x="580" y="430" id="i-text" style="font-size:10px" >Node J</text>
<path d="M 200 120 L 300 120" id="edge-1" class="path-line"  marker-end="url(#arrow)" data-from="a" data-to="b" />
<path d="M 420 120 L 520 120" id="edge-2" class="path-line"  marker-end="url(#arrow)" data-from="b" data-to="c" />
<path d="M 540 140 L 540 160 L 180 160 L 180 240" id="edge-3" class="path-line"  marker-end="url(#arrow)" data-from="c" data-to="d" />
<path d="M 200 280 L 300 280" id="edge-4" class="path-line"  marker-end="url(#arrow)" data-from="d" data-to="e" />
<path d="M 560 140 L 560 180 L 400 180 L 400 240" id="edge-5" class="path-line"  marker-end="url(#arrow)" data-from="c" data-to="e" />
<path d="M 300 260 L 200 260" id="edge-6" class="path-line"  marker-end="url(#arrow)" data-from="e" data-to="d" />
<path d="M 180 300 L 180 320 L 540 320 L 540 300" id="edge-7" class="path-line"  marker-end="url(#arrow)" data-from="d" data-to="f" />
<path d="M 560 300 L 560 340 L 180 340 L 180 400" id="edge-8" class="path-line"  marker-end="url(#arrow)" data-from="f" data-to="g" />
<path d="M 580 300 L 580 360 L 400 360 L 400 400" id="edge-9" class="path-line"  marker-end="url(#arrow)" data-from="f" data-to="h" />
<path d="M 180 460 L 180 480 L 540 480 L 540 460" id="edge-10" class="path-line"  marker-end="url(#arrow)" data-from="g" data-to="i" />
</g>
</svg>
