<?xml version="1.0"?>
<!-- Generated by SVGo -->
<svg width="580" height="380"
     style="background-color: white;"
     xmlns="http://www.w3.org/2000/svg"
     xmlns:xlink="http://www.w3.org/1999/xlink">
<g style="text-anchor:middle;font-family:sans;fill:none;stroke:black">
<circle cx="20" cy="20" r="1" class="path-dot" />
<circle cx="20" cy="40" r="1" class="path-dot" />
<circle cx="20" cy="60" r="1" class="path-dot" />
<circle cx="20" cy="80" r="1" class="path-dot" />
<circle cx="20" cy="100" r="1" class="path-dot" />
<circle cx="20" cy="120" r="1" class="path-dot" />
<circle cx="20" cy="140" r="1" class="path-dot" />
<circle cx="20" cy="160" r="1" class="path-dot" />
<circle cx="20" cy="180" r="1" class="path-dot" />
<circle cx="20" cy="200" r="1" class="path-dot" />
<circle cx="20" cy="220" r="1" class="path-dot" />
<circle cx="20" cy="240" r="1" class="path-dot" />
<circle cx="20" cy="260" r="1" class="path-dot" />
<circle cx="20" cy="280" r="1" class="path-dot" />
<circle cx="20" cy="300" r="1" class="path-dot" />
<circle cx="20" cy="320" r="1" class="path-dot" />
<circle cx="20" cy="340" r="1" class="path-dot" />
<circle cx="20" cy="360" r="1" class="path-dot" />
<circle cx="40" cy="20" r="1" class="path-dot" />
<circle cx="40" cy="60" r="1" class="path-dot" />
<circle cx="40" cy="80" r="1" class="path-dot" />
<circle cx="40" cy="120" r="1" class="path-dot" />
<circle cx="40" cy="140" r="1" class="path-dot" />
<circle cx="40" cy="180" r="1" class="path-dot" />
<circle cx="40" cy="200" r="1" class="path-dot" />
<circle cx="40" cy="240" r="1" class="path-dot" />
<circle cx="40" cy="260" r="1" class="path-dot" />
<circle cx="40" cy="300" r="1" class="path-dot" />
<circle cx="40" cy="320" r="1" class="path-dot" />
<circle cx="40" cy="360" r="1" class="path-dot" />
<circle cx="60" cy="20" r="1" class="path-dot" />
<circle cx="60" cy="40" r="1" class="path-dot" />
<circle cx="60" cy="100" r="1" class="path-dot" />
<circle cx="60" cy="120" r="1" class="path-dot" />
<circle cx="60" cy="140" r="1" class="path-dot" />
<circle cx="60" cy="160" r="1" class="path-dot" />
<circle cx="60" cy="220" r="1" class="path-dot" />
<circle cx="60" cy="240" r="1" class="path-dot" />
<circle cx="60" cy="260" r="1" class="path-dot" />
<circle cx="60" cy="280" r="1" class="path-dot" />
<circle cx="60" cy="340" r="1" class="path-dot" />
<circle cx="60" cy="360" r="1" class="path-dot" />
<circle cx="80" cy="20" r="1" class="path-dot" />
<circle cx="80" cy="40" r="1" class="path-dot" />
<circle cx="80" cy="100" r="1" class="path-dot" />
<circle cx="80" cy="120" r="1" class="path-dot" />
<circle cx="80" cy="140" r="1" class="path-dot" />
<circle cx="80" cy="160" r="1" class="path-dot" />
<circle cx="80" cy="220" r="1" class="path-dot" />
<circle cx="80" cy="240" r="1" class="path-dot" />
<circle cx="80" cy="260" r="1" class="path-dot" />
<circle cx="80" cy="280" r="1" class="path-dot" />
<circle cx="80" cy="340" r="1" class="path-dot" />
<circle cx="80" cy="360" r="1" class="path-dot" />
<circle cx="100" cy="20" r="1" class="path-dot" />
<circle cx="100" cy="40" r="1" class="path-dot" />
<circle cx="100" cy="100" r="1" class="path-dot" />
<circle cx="100" cy="120" r="1" class="path-dot" />
<circle cx="100" cy="140" r="1" class="path-dot" />
<circle cx="100" cy="160" r="1" class="path-dot" />
<circle cx="100" cy="220" r="1" class="path-dot" />
<circle cx="100" cy="240" r="1" class="path-dot" />
<circle cx="100" cy="260" r="1" class="path-dot" />
<circle cx="100" cy="280" r="1" class="path-dot" />
<circle cx="100" cy="340" r="1" class="path-dot" />
<circle cx="100" cy="360" r="1" class="path-dot" />
<circle cx="120" cy="20" r="1" class="path-dot" />
<circle cx="120" cy="60" r="1" class="path-dot" />
<circle cx="120" cy="80" r="1" class="path-dot" />
<circle cx="120" cy="120" r="1" class="path-dot" />
<circle cx="120" cy="140" r="1" class="path-dot" />
<circle cx="120" cy="180" r="1" class="path-dot" />
<circle cx="120" cy="200" r="1" class="path-dot" />
<circle cx="120" cy="240" r="1" class="path-dot" />
<circle cx="120" cy="260" r="1" class="path-dot" />
<circle cx="120" cy="300" r="1" class="path-dot" />
<circle cx="120" cy="320" r="1" class="path-dot" />
<circle cx="120" cy="360" r="1" class="path-dot" />
<circle cx="140" cy="20" r="1" class="path-dot" />
<circle cx="140" cy="40" r="1" class="path-dot" />
<circle cx="140" cy="60" r="1" class="path-dot" />
<circle cx="140" cy="80" r="1" class="path-dot" />
<circle cx="140" cy="100" r="1" class="path-dot" />
<circle cx="140" cy="120" r="1" class="path-dot" />
<circle cx="140" cy="140" r="1" class="path-dot" />
<circle cx="140" cy="160" r="1" class="path-dot" />
<circle cx="140" cy="180" r="1" class="path-dot" />
<circle cx="140" cy="200" r="1" class="path-dot" />
<circle cx="140" cy="220" r="1" class="path-dot" />
<circle cx="140" cy="240" r="1" class="path-dot" />
<circle cx="140" cy="260" r="1" class="path-dot" />
<circle cx="140" cy="280" r="1" class="path-dot" />
<circle cx="140" cy="300" r="1" class="path-dot" />
<circle cx="140" cy="320" r="1" class="path-dot" />
<circle cx="140" cy="340" r="1" class="path-dot" />
<circle cx="140" cy="360" r="1" class="path-dot" />
<circle cx="160" cy="20" r="1" class="path-dot" />
<circle cx="160" cy="40" r="1" class="path-dot" />
<circle cx="160" cy="60" r="1" class="path-dot" />
<circle cx="160" cy="80" r="1" class="path-dot" />
<circle cx="160" cy="100" r="1" class="path-dot" />
<circle cx="160" cy="120" r="1" class="path-dot" />
<circle cx="160" cy="140" r="1" class="path-dot" />
<circle cx="160" cy="160" r="1" class="path-dot" />
<circle cx="160" cy="180" r="1" class="path-dot" />
<circle cx="160" cy="200" r="1" class="path-dot" />
<circle cx="160" cy="220" r="1" class="path-dot" />
<circle cx="160" cy="240" r="1" class="path-dot" />
<circle cx="160" cy="260" r="1" class="path-dot" />
<circle cx="160" cy="280" r="1" class="path-dot" />
<circle cx="160" cy="300" r="1" class="path-dot" />
<circle cx="160" cy="320" r="1" class="path-dot" />
<circle cx="160" cy="340" r="1" class="path-dot" />
<circle cx="160" cy="360" r="1" class="path-dot" />
<circle cx="180" cy="20" r="1" class="path-dot" />
<circle cx="180" cy="60" r="1" class="path-dot" />
<circle cx="180" cy="80" r="1" class="path-dot" />
<circle cx="180" cy="120" r="1" class="path-dot" />
<circle cx="180" cy="140" r="1" class="path-dot" />
<circle cx="180" cy="180" r="1" class="path-dot" />
<circle cx="180" cy="200" r="1" class="path-dot" />
<circle cx="180" cy="240" r="1" class="path-dot" />
<circle cx="180" cy="260" r="1" class="path-dot" />
<circle cx="180" cy="300" r="1" class="path-dot" />
<circle cx="180" cy="320" r="1" class="path-dot" />
<circle cx="180" cy="360" r="1" class="path-dot" />
<circle cx="200" cy="20" r="1" class="path-dot" />
<circle cx="200" cy="40" r="1" class="path-dot" />
<circle cx="200" cy="100" r="1" class="path-dot" />
<circle cx="200" cy="120" r="1" class="path-dot" />
<circle cx="200" cy="140" r="1" class="path-dot" />
<circle cx="200" cy="160" r="1" class="path-dot" />
<circle cx="200" cy="220" r="1" class="path-dot" />
<circle cx="200" cy="240" r="1" class="path-dot" />
<circle cx="200" cy="260" r="1" class="path-dot" />
<circle cx="200" cy="280" r="1" class="path-dot" />
<circle cx="200" cy="340" r="1" class="path-dot" />
<circle cx="200" cy="360" r="1" class="path-dot" />
<circle cx="220" cy="20" r="1" class="path-dot" />
<circle cx="220" cy="40" r="1" class="path-dot" />
<circle cx="220" cy="100" r="1" class="path-dot" />
<circle cx="220" cy="120" r="1" class="path-dot" />
<circle cx="220" cy="140" r="1" class="path-dot" />
<circle cx="220" cy="160" r="1" class="path-dot" />
<circle cx="220" cy="220" r="1" class="path-dot" />
<circle cx="220" cy="240" r="1" class="path-dot" />
<circle cx="220" cy="260" r="1" class="path-dot" />
<circle cx="220" cy="280" r="1" class="path-dot" />
<circle cx="220" cy="340" r="1" class="path-dot" />
<circle cx="220" cy="360" r="1" class="path-dot" />
<circle cx="240" cy="20" r="1" class="path-dot" />
<circle cx="240" cy="40" r="1" class="path-dot" />
<circle cx="240" cy="100" r="1" class="path-dot" />
<circle cx="240" cy="120" r="1" class="path-dot" />
<circle cx="240" cy="140" r="1" class="path-dot" />
<circle cx="240" cy="160" r="1" class="path-dot" />
<circle cx="240" cy="220" r="1" class="path-dot" />
<circle cx="240" cy="240" r="1" class="path-dot" />
<circle cx="240" cy="260" r="1" class="path-dot" />
<circle cx="240" cy="280" r="1" class="path-dot" />
<circle cx="240" cy="340" r="1" class="path-dot" />
<circle cx="240" cy="360" r="1" class="path-dot" />
<circle cx="260" cy="20" r="1" class="path-dot" />
<circle cx="260" cy="60" r="1" class="path-dot" />
<circle cx="260" cy="80" r="1" class="path-dot" />
<circle cx="260" cy="120" r="1" class="path-dot" />
<circle cx="260" cy="140" r="1" class="path-dot" />
<circle cx="260" cy="180" r="1" class="path-dot" />
<circle cx="260" cy="200" r="1" class="path-dot" />
<circle cx="260" cy="240" r="1" class="path-dot" />
<circle cx="260" cy="260" r="1" class="path-dot" />
<circle cx="260" cy="300" r="1" class="path-dot" />
<circle cx="260" cy="320" r="1" class="path-dot" />
<circle cx="260" cy="360" r="1" class="path-dot" />
<circle cx="280" cy="20" r="1" class="path-dot" />
<circle cx="280" cy="40" r="1" class="path-dot" />
<circle cx="280" cy="60" r="1" class="path-dot" />
<circle cx="280" cy="80" r="1" class="path-dot" />
<circle cx="280" cy="100" r="1" class="path-dot" />
<circle cx="280" cy="120" r="1" class="path-dot" />
<circle cx="280" cy="140" r="1" class="path-dot" />
<circle cx="280" cy="160" r="1" class="path-dot" />
<circle cx="280" cy="180" r="1" class="path-dot" />
<circle cx="280" cy="200" r="1" class="path-dot" />
<circle cx="280" cy="220" r="1" class="path-dot" />
<circle cx="280" cy="240" r="1" class="path-dot" />
<circle cx="280" cy="260" r="1" class="path-dot" />
<circle cx="280" cy="280" r="1" class="path-dot" />
<circle cx="280" cy="300" r="1" class="path-dot" />
<circle cx="280" cy="320" r="1" class="path-dot" />
<circle cx="280" cy="340" r="1" class="path-dot" />
<circle cx="280" cy="360" r="1" class="path-dot" />
<circle cx="300" cy="20" r="1" class="path-dot" />
<circle cx="300" cy="40" r="1" class="path-dot" />
<circle cx="300" cy="60" r="1" class="path-dot" />
<circle cx="300" cy="80" r="1" class="path-dot" />
<circle cx="300" cy="100" r="1" class="path-dot" />
<circle cx="300" cy="120" r="1" class="path-dot" />
<circle cx="300" cy="140" r="1" class="path-dot" />
<circle cx="300" cy="160" r="1" class="path-dot" />
<circle cx="300" cy="180" r="1" class="path-dot" />
<circle cx="300" cy="200" r="1" class="path-dot" />
<circle cx="300" cy="220" r="1" class="path-dot" />
<circle cx="300" cy="240" r="1" class="path-dot" />
<circle cx="300" cy="260" r="1" class="path-dot" />
<circle cx="300" cy="280" r="1" class="path-dot" />
<circle cx="300" cy="300" r="1" class="path-dot" />
<circle cx="300" cy="320" r="1" class="path-dot" />
<circle cx="300" cy="340" r="1" class="path-dot" />
<circle cx="300" cy="360" r="1" class="path-dot" />
<circle cx="320" cy="20" r="1" class="path-dot" />
<circle cx="320" cy="60" r="1" class="path-dot" />
<circle cx="320" cy="80" r="1" class="path-dot" />
<circle cx="320" cy="120" r="1" class="path-dot" />
<circle cx="320" cy="140" r="1" class="path-dot" />
<circle cx="320" cy="180" r="1" class="path-dot" />
<circle cx="320" cy="200" r="1" class="path-dot" />
<circle cx="320" cy="240" r="1" class="path-dot" />
<circle cx="320" cy="260" r="1" class="path-dot" />
<circle cx="320" cy="280" r="1" class="path-dot" />
<circle cx="320" cy="300" r="1" class="path-dot" />
<circle cx="320" cy="320" r="1" class="path-dot" />
<circle cx="320" cy="340" r="1" class="path-dot" />
<circle cx="320" cy="360" r="1" class="path-dot" />
<circle cx="340" cy="20" r="1" class="path-dot" />
<circle cx="340" cy="40" r="1" class="path-dot" />
<circle cx="340" cy="100" r="1" class="path-dot" />
<circle cx="340" cy="120" r="1" class="path-dot" />
<circle cx="340" cy="140" r="1" class="path-dot" />
<circle cx="340" cy="160" r="1" class="path-dot" />
<circle cx="340" cy="220" r="1" class="path-dot" />
<circle cx="340" cy="240" r="1" class="path-dot" />
<circle cx="340" cy="260" r="1" class="path-dot" />
<circle cx="340" cy="280" r="1" class="path-dot" />
<circle cx="340" cy="300" r="1" class="path-dot" />
<circle cx="340" cy="320" r="1" class="path-dot" />
<circle cx="340" cy="340" r="1" class="path-dot" />
<circle cx="340" cy="360" r="1" class="path-dot" />
<circle cx="360" cy="20" r="1" class="path-dot" />
<circle cx="360" cy="40" r="1" class="path-dot" />
<circle cx="360" cy="100" r="1" class="path-dot" />
<circle cx="360" cy="120" r="1" class="path-dot" />
<circle cx="360" cy="140" r="1" class="path-dot" />
<circle cx="360" cy="160" r="1" class="path-dot" />
<circle cx="360" cy="220" r="1" class="path-dot" />
<circle cx="360" cy="240" r="1" class="path-dot" />
<circle cx="360" cy="260" r="1" class="path-dot" />
<circle cx="360" cy="280" r="1" class="path-dot" />
<circle cx="360" cy="300" r="1" class="path-dot" />
<circle cx="360" cy="320" r="1" class="path-dot" />
<circle cx="360" cy="340" r="1" class="path-dot" />
<circle cx="360" cy="360" r="1" class="path-dot" />
<circle cx="380" cy="20" r="1" class="path-dot" />
<circle cx="380" cy="40" r="1" class="path-dot" />
<circle cx="380" cy="100" r="1" class="path-dot" />
<circle cx="380" cy="120" r="1" class="path-dot" />
<circle cx="380" cy="140" r="1" class="path-dot" />
<circle cx="380" cy="160" r="1" class="path-dot" />
<circle cx="380" cy="220" r="1" class="path-dot" />
<circle cx="380" cy="240" r="1" class="path-dot" />
<circle cx="380" cy="260" r="1" class="path-dot" />
<circle cx="380" cy="280" r="1" class="path-dot" />
<circle cx="380" cy="300" r="1" class="path-dot" />
<circle cx="380" cy="320" r="1" class="path-dot" />
<circle cx="380" cy="340" r="1" class="path-dot" />
<circle cx="380" cy="360" r="1" class="path-dot" />
<circle cx="400" cy="20" r="1" class="path-dot" />
<circle cx="400" cy="60" r="1" class="path-dot" />
<circle cx="400" cy="80" r="1" class="path-dot" />
<circle cx="400" cy="120" r="1" class="path-dot" />
<circle cx="400" cy="140" r="1" class="path-dot" />
<circle cx="400" cy="180" r="1" class="path-dot" />
<circle cx="400" cy="200" r="1" class="path-dot" />
<circle cx="400" cy="240" r="1" class="path-dot" />
<circle cx="400" cy="260" r="1" class="path-dot" />
<circle cx="400" cy="280" r="1" class="path-dot" />
<circle cx="400" cy="300" r="1" class="path-dot" />
<circle cx="400" cy="320" r="1" class="path-dot" />
<circle cx="400" cy="340" r="1" class="path-dot" />
<circle cx="400" cy="360" r="1" class="path-dot" />
<circle cx="420" cy="20" r="1" class="path-dot" />
<circle cx="420" cy="40" r="1" class="path-dot" />
<circle cx="420" cy="60" r="1" class="path-dot" />
<circle cx="420" cy="80" r="1" class="path-dot" />
<circle cx="420" cy="100" r="1" class="path-dot" />
<circle cx="420" cy="120" r="1" class="path-dot" />
<circle cx="420" cy="140" r="1" class="path-dot" />
<circle cx="420" cy="160" r="1" class="path-dot" />
<circle cx="420" cy="180" r="1" class="path-dot" />
<circle cx="420" cy="200" r="1" class="path-dot" />
<circle cx="420" cy="220" r="1" class="path-dot" />
<circle cx="420" cy="240" r="1" class="path-dot" />
<circle cx="420" cy="260" r="1" class="path-dot" />
<circle cx="420" cy="280" r="1" class="path-dot" />
<circle cx="420" cy="300" r="1" class="path-dot" />
<circle cx="420" cy="320" r="1" class="path-dot" />
<circle cx="420" cy="340" r="1" class="path-dot" />
<circle cx="420" cy="360" r="1" class="path-dot" />
<circle cx="440" cy="20" r="1" class="path-dot" />
<circle cx="440" cy="40" r="1" class="path-dot" />
<circle cx="440" cy="60" r="1" class="path-dot" />
<circle cx="440" cy="80" r="1" class="path-dot" />
<circle cx="440" cy="100" r="1" class="path-dot" />
<circle cx="440" cy="120" r="1" class="path-dot" />
<circle cx="440" cy="140" r="1" class="path-dot" />
<circle cx="440" cy="160" r="1" class="path-dot" />
<circle cx="440" cy="180" r="1" class="path-dot" />
<circle cx="440" cy="200" r="1" class="path-dot" />
<circle cx="440" cy="220" r="1" class="path-dot" />
<circle cx="440" cy="240" r="1" class="path-dot" />
<circle cx="440" cy="260" r="1" class="path-dot" />
<circle cx="440" cy="280" r="1" class="path-dot" />
<circle cx="440" cy="300" r="1" class="path-dot" />
<circle cx="440" cy="320" r="1" class="path-dot" />
<circle cx="440" cy="340" r="1" class="path-dot" />
<circle cx="440" cy="360" r="1" class="path-dot" />
<circle cx="460" cy="20" r="1" class="path-dot" />
<circle cx="460" cy="60" r="1" class="path-dot" />
<circle cx="460" cy="80" r="1" class="path-dot" />
<circle cx="460" cy="120" r="1" class="path-dot" />
<circle cx="460" cy="140" r="1" class="path-dot" />
<circle cx="460" cy="180" r="1" class="path-dot" />
<circle cx="460" cy="200" r="1" class="path-dot" />
<circle cx="460" cy="240" r="1" class="path-dot" />
<circle cx="460" cy="260" r="1" class="path-dot" />
<circle cx="460" cy="280" r="1" class="path-dot" />
<circle cx="460" cy="300" r="1" class="path-dot" />
<circle cx="460" cy="320" r="1" class="path-dot" />
<circle cx="460" cy="340" r="1" class="path-dot" />
<circle cx="460" cy="360" r="1" class="path-dot" />
<circle cx="480" cy="20" r="1" class="path-dot" />
<circle cx="480" cy="40" r="1" class="path-dot" />
<circle cx="480" cy="100" r="1" class="path-dot" />
<circle cx="480" cy="120" r="1" class="path-dot" />
<circle cx="480" cy="140" r="1" class="path-dot" />
<circle cx="480" cy="160" r="1" class="path-dot" />
<circle cx="480" cy="220" r="1" class="path-dot" />
<circle cx="480" cy="240" r="1" class="path-dot" />
<circle cx="480" cy="260" r="1" class="path-dot" />
<circle cx="480" cy="280" r="1" class="path-dot" />
<circle cx="480" cy="300" r="1" class="path-dot" />
<circle cx="480" cy="320" r="1" class="path-dot" />
<circle cx="480" cy="340" r="1" class="path-dot" />
<circle cx="480" cy="360" r="1" class="path-dot" />
<circle cx="500" cy="20" r="1" class="path-dot" />
<circle cx="500" cy="40" r="1" class="path-dot" />
<circle cx="500" cy="100" r="1" class="path-dot" />
<circle cx="500" cy="120" r="1" class="path-dot" />
<circle cx="500" cy="140" r="1" class="path-dot" />
<circle cx="500" cy="160" r="1" class="path-dot" />
<circle cx="500" cy="220" r="1" class="path-dot" />
<circle cx="500" cy="240" r="1" class="path-dot" />
<circle cx="500" cy="260" r="1" class="path-dot" />
<circle cx="500" cy="280" r="1" class="path-dot" />
<circle cx="500" cy="300" r="1" class="path-dot" />
<circle cx="500" cy="320" r="1" class="path-dot" />
<circle cx="500" cy="340" r="1" class="path-dot" />
<circle cx="500" cy="360" r="1" class="path-dot" />
<circle cx="520" cy="20" r="1" class="path-dot" />
<circle cx="520" cy="40" r="1" class="path-dot" />
<circle cx="520" cy="100" r="1" class="path-dot" />
<circle cx="520" cy="120" r="1" class="path-dot" />
<circle cx="520" cy="140" r="1" class="path-dot" />
<circle cx="520" cy="160" r="1" class="path-dot" />
<circle cx="520" cy="220" r="1" class="path-dot" />
<circle cx="520" cy="240" r="1" class="path-dot" />
<circle cx="520" cy="260" r="1" class="path-dot" />
<circle cx="520" cy="280" r="1" class="path-dot" />
<circle cx="520" cy="300" r="1" class="path-dot" />
<circle cx="520" cy="320" r="1" class="path-dot" />
<circle cx="520" cy="340" r="1" class="path-dot" />
<circle cx="520" cy="360" r="1" class="path-dot" />
<circle cx="540" cy="20" r="1" class="path-dot" />
<circle cx="540" cy="60" r="1" class="path-dot" />
<circle cx="540" cy="80" r="1" class="path-dot" />
<circle cx="540" cy="120" r="1" class="path-dot" />
<circle cx="540" cy="140" r="1" class="path-dot" />
<circle cx="540" cy="180" r="1" class="path-dot" />
<circle cx="540" cy="200" r="1" class="path-dot" />
<circle cx="540" cy="240" r="1" class="path-dot" />
<circle cx="540" cy="260" r="1" class="path-dot" />
<circle cx="540" cy="280" r="1" class="path-dot" />
<circle cx="540" cy="300" r="1" class="path-dot" />
<circle cx="540" cy="320" r="1" class="path-dot" />
<circle cx="540" cy="340" r="1" class="path-dot" />
<circle cx="540" cy="360" r="1" class="path-dot" />
<circle cx="560" cy="20" r="1" class="path-dot" />
<circle cx="560" cy="40" r="1" class="path-dot" />
<circle cx="560" cy="60" r="1" class="path-dot" />
<circle cx="560" cy="80" r="1" class="path-dot" />
<circle cx="560" cy="100" r="1" class="path-dot" />
<circle cx="560" cy="120" r="1" class="path-dot" />
<circle cx="560" cy="140" r="1" class="path-dot" />
<circle cx="560" cy="160" r="1" class="path-dot" />
<circle cx="560" cy="180" r="1" class="path-dot" />
<circle cx="560" cy="200" r="1" class="path-dot" />
<circle cx="560" cy="220" r="1" class="path-dot" />
<circle cx="560" cy="240" r="1" class="path-dot" />
<circle cx="560" cy="260" r="1" class="path-dot" />
<circle cx="560" cy="280" r="1" class="path-dot" />
<circle cx="560" cy="300" r="1" class="path-dot" />
<circle cx="560" cy="320" r="1" class="path-dot" />
<circle cx="560" cy="340" r="1" class="path-dot" />
<circle cx="560" cy="360" r="1" class="path-dot" />
<rect x="40" y="40" width="80" height="60" rx="3" ry="3" id="node1" />
<text x="80" y="70" id="node1-text" style="font-size:10px" >Node 1</text>
<rect x="180" y="40" width="80" height="60" rx="3" ry="3" id="node2" />
<text x="220" y="70" id="node2-text" style="font-size:10px" >Node 2</text>
<rect x="320" y="40" width="80" height="60" rx="3" ry="3" id="node3" />
<text x="360" y="70" id="node3-text" style="font-size:10px" >Node 3</text>
<rect x="460" y="40" width="80" height="60" rx="3" ry="3" id="node4" />
<text x="500" y="70" id="node4-text" style="font-size:10px" >Node 4</text>
<rect x="40" y="160" width="80" height="60" rx="3" ry="3" id="node5" />
<text x="80" y="190" id="node5-text" style="font-size:10px" >Node 5</text>
<rect x="180" y="160" width="80" height="60" rx="3" ry="3" id="node6" />
<text x="220" y="190" id="node6-text" style="font-size:10px" >Node 6</text>
<rect x="320" y="160" width="80" height="60" rx="3" ry="3" id="node7" />
<text x="360" y="190" id="node7-text" style="font-size:10px" >Node 7</text>
<rect x="460" y="160" width="80" height="60" rx="3" ry="3" id="node8" />
<text x="500" y="190" id="node8-text" style="font-size:10px" >Node 8</text>
<rect x="40" y="280" width="80" height="60" rx="3" ry="3" id="node9" />
<text x="80" y="310" id="node9-text" style="font-size:10px" >Node 9</text>
<rect x="180" y="280" width="80" height="60" rx="3" ry="3" id="node10" />
<text x="220" y="310" id="node10-text" style="font-size:10px" >Node 10</text>
<path d="M 100 100 L 100 120 L 200 120 L 200 160" class="path-line" />
<path d="M 340 100 L 340 120 L 300 120 L 300 180 L 260 180" class="path-line" />
<path d="M 480 220 L 480 240 L 160 240 L 160 300 L 120 300" class="path-line" />
</g>
</svg>
