<?xml version="1.0"?>
<!-- Generated by SVGo -->
<svg width="580" height="380"
     style="background-color: white;"
     xmlns="http://www.w3.org/2000/svg"
     xmlns:xlink="http://www.w3.org/1999/xlink">
<g style="text-anchor:middle;font-family:sans;fill:none;stroke:black">
<rect x="40" y="40" width="80" height="60" rx="3" ry="3" id="node1" />
<text x="80" y="70" id="node1-text" style="font-size:10px" >Node 1</text>
<rect x="180" y="40" width="80" height="60" rx="3" ry="3" id="node2" />
<text x="220" y="70" id="node2-text" style="font-size:10px" >Node 2</text>
<rect x="320" y="40" width="80" height="60" rx="3" ry="3" id="node3" />
<text x="360" y="70" id="node3-text" style="font-size:10px" >Node 3</text>
<rect x="460" y="40" width="80" height="60" rx="3" ry="3" id="node4" />
<text x="500" y="70" id="node4-text" style="font-size:10px" >Node 4</text>
<rect x="40" y="160" width="80" height="60" rx="3" ry="3" id="node5" />
<text x="80" y="190" id="node5-text" style="font-size:10px" >Node 5</text>
<rect x="180" y="160" width="80" height="60" rx="3" ry="3" id="node6" />
<text x="220" y="190" id="node6-text" style="font-size:10px" >Node 6</text>
<rect x="320" y="160" width="80" height="60" rx="3" ry="3" id="node7" />
<text x="360" y="190" id="node7-text" style="font-size:10px" >Node 7</text>
<rect x="460" y="160" width="80" height="60" rx="3" ry="3" id="node8" />
<text x="500" y="190" id="node8-text" style="font-size:10px" >Node 8</text>
<rect x="40" y="280" width="80" height="60" rx="3" ry="3" id="node9" />
<text x="80" y="310" id="node9-text" style="font-size:10px" >Node 9</text>
<rect x="180" y="280" width="80" height="60" rx="3" ry="3" id="node10" />
<text x="220" y="310" id="node10-text" style="font-size:10px" >Node 10</text>
<path d="M 100 100 L 100 120 L 200 120 L 200 160" class="path-line" />
<path d="M 340 100 L 340 120 L 300 120 L 300 180 L 260 180" class="path-line" />
<path d="M 480 220 L 480 240 L 160 240 L 160 300 L 120 300" class="path-line" />
</g>
</svg>
