<?xml version="1.0"?>
<!-- Generated by SVGo -->
<svg width="620" height="620"
     style="background-color: white;"
     xmlns="http://www.w3.org/2000/svg"
     xmlns:xlink="http://www.w3.org/1999/xlink">
<g style="text-anchor:middle;font-family:sans;fill:none;stroke:black">
<defs>
<marker id="arrow" refX="10" refY="5" markerWidth="7" markerHeight="7" viewBox="0 0 10 10" fill="black" orient="auto-start-reverse" >
<path d="M 0 0 L 10 5 L 0 10 z" />
</marker>
</defs>
<rect x="100" y="100" width="60" height="60" rx="3" ry="3" id="a" />
<text x="130" y="130" id="a-text" style="font-size:10px" >Node 1</text>
<rect x="100" y="300" width="60" height="60" rx="3" ry="3" id="b" />
<text x="130" y="330" id="b-text" style="font-size:10px" >Node 2</text>
<rect x="100" y="500" width="60" height="60" rx="3" ry="3" id="c" />
<text x="130" y="530" id="c-text" style="font-size:10px" >Node 3</text>
<rect x="300" y="60" width="60" height="60" rx="3" ry="3" id="f" />
<text x="330" y="90" id="f-text" style="font-size:10px" >Node 4</text>
<rect x="240" y="200" width="60" height="60" rx="3" ry="3" id="d" />
<text x="270" y="230" id="d-text" style="font-size:10px" >Node 5</text>
<rect x="240" y="440" width="60" height="60" rx="3" ry="3" id="e" />
<text x="270" y="470" id="e-text" style="font-size:10px" >Node 6</text>
<rect x="400" y="300" width="60" height="60" rx="3" ry="3" id="g" />
<text x="430" y="330" id="g-text" style="font-size:10px" >Node 7</text>
<rect x="400" y="500" width="60" height="60" rx="3" ry="3" id="h" />
<text x="430" y="530" id="h-text" style="font-size:10px" >Node 8</text>
<rect x="500" y="100" width="60" height="60" rx="3" ry="3" id="i" />
<text x="530" y="130" id="i-text" style="font-size:10px" >Node 9</text>
<path d="M 140 160 L 140 300" class="path-line" marker-end="url(#arrow)" />
<path d="M 140 360 L 140 500" class="path-line" marker-end="url(#arrow)" />
<path d="M 160 520 L 180 520 L 180 420 L 260 420 L 260 260" class="path-line" marker-end="url(#arrow)" />
<path d="M 280 260 L 280 440" class="path-line" marker-end="url(#arrow)" />
<path d="M 160 540 L 260 540 L 260 500" class="path-line" marker-end="url(#arrow)" />
<path d="M 300 460 L 320 460 L 320 240 L 300 240" class="path-line" marker-end="url(#arrow)" />
<path d="M 300 220 L 320 220 L 320 120" class="path-line" marker-end="url(#arrow)" />
<path d="M 360 100 L 420 100 L 420 300" class="path-line" marker-end="url(#arrow)" />
<path d="M 340 120 L 340 380 L 420 380 L 420 500" class="path-line" marker-end="url(#arrow)" />
<path d="M 460 320 L 520 320 L 520 160" class="path-line" marker-end="url(#arrow)" />
</g>
</svg>
