<?xml version="1.0"?>
<!-- Generated by SVGo -->
<svg width="920" height="580"
     style="background-color: white;"
     xmlns="http://www.w3.org/2000/svg"
     xmlns:xlink="http://www.w3.org/1999/xlink">
<g style="text-anchor:middle;font-family:sans;fill:none;stroke:black">
<defs>
<marker id="arrow" refX="10" refY="5" markerWidth="7" markerHeight="7" viewBox="0 0 10 10" fill="black" orient="auto-start-reverse" >
<path d="M 0 0 L 10 5 L 0 10 z" />
</marker>
</defs>
<rect x="60" y="60" width="80" height="40" rx="3" ry="3" id="a" />
<text x="100" y="80" id="a-text" style="font-size:10px" >Node 1</text>
<rect x="240" y="60" width="80" height="40" rx="3" ry="3" id="b" />
<text x="280" y="80" id="b-text" style="font-size:10px" >Node 2</text>
<rect x="420" y="60" width="80" height="40" rx="3" ry="3" id="c" />
<text x="460" y="80" id="c-text" style="font-size:10px" >Node 3</text>
<rect x="600" y="60" width="80" height="40" rx="3" ry="3" id="d" />
<text x="640" y="80" id="d-text" style="font-size:10px" >Node 4</text>
<rect x="600" y="200" width="80" height="40" rx="3" ry="3" id="e" />
<text x="640" y="220" id="e-text" style="font-size:10px" >Node 5</text>
<rect x="600" y="340" width="80" height="40" rx="3" ry="3" id="f" />
<text x="640" y="360" id="f-text" style="font-size:10px" >Node 6</text>
<rect x="600" y="480" width="80" height="40" rx="3" ry="3" id="g" />
<text x="640" y="500" id="g-text" style="font-size:10px" >Node 7</text>
<rect x="780" y="60" width="80" height="40" rx="3" ry="3" id="h" />
<text x="820" y="80" id="h-text" style="font-size:10px" >Node 8</text>
<path d="M 500 80 L 600 80" class="path-line" marker-end="url(#arrow)" />
<path d="M 140 80 L 240 80" class="path-line" marker-end="url(#arrow)" />
<path d="M 660 380 L 660 480" class="path-line" marker-end="url(#arrow)" />
<path d="M 480 100 L 480 120 L 620 120 L 620 200" class="path-line" marker-end="url(#arrow)" />
<path d="M 680 500 L 700 500 L 700 320 L 660 320 L 660 240" class="path-line" marker-end="url(#arrow)" />
<path d="M 320 80 L 420 80" class="path-line" marker-end="url(#arrow)" />
<path d="M 620 380 L 620 400 L 580 400 L 580 540 L 800 540 L 800 100" class="path-line" marker-end="url(#arrow)" />
<path d="M 640 100 L 640 200" class="path-line" marker-end="url(#arrow)" />
<path d="M 660 60 L 660 40 L 880 40 L 880 560 L 560 560 L 560 360 L 600 360" class="path-line" marker-end="url(#arrow)" />
<path d="M 660 200 L 660 100" class="path-line" marker-end="url(#arrow)" />
</g>
</svg>
