<?xml version="1.0"?>
<!-- Generated by SVGo -->
<svg width="740" height="580"
     style="background-color: white;"
     xmlns="http://www.w3.org/2000/svg"
     xmlns:xlink="http://www.w3.org/1999/xlink">
<g style="text-anchor:middle;font-family:sans;fill:none;stroke:black">
<defs>
<marker id="arrow" refX="10" refY="5" markerWidth="7" markerHeight="7" viewBox="0 0 10 10" fill="black" orient="auto-start-reverse" >
<path d="M 0 0 L 10 5 L 0 10 z" />
</marker>
</defs>
<rect x="60" y="60" width="80" height="40" rx="3" ry="3" id="node5" />
<text x="100" y="80" id="node5-text" style="font-size:10px" >Node 5</text>
<rect x="240" y="60" width="80" height="40" rx="3" ry="3" id="node11" />
<text x="280" y="80" id="node11-text" style="font-size:10px" >Node 11</text>
<rect x="420" y="60" width="80" height="40" rx="3" ry="3" id="node7" />
<text x="460" y="80" id="node7-text" style="font-size:10px" >Node 7</text>
<rect x="600" y="60" width="80" height="40" rx="3" ry="3" id="node14" />
<text x="640" y="80" id="node14-text" style="font-size:10px" >Node 14</text>
<rect x="60" y="200" width="80" height="40" rx="3" ry="3" id="node13" />
<text x="100" y="220" id="node13-text" style="font-size:10px" >Node 13</text>
<rect x="240" y="200" width="80" height="40" rx="3" ry="3" id="node9" />
<text x="280" y="220" id="node9-text" style="font-size:10px" >Node 9</text>
<rect x="420" y="200" width="80" height="40" rx="3" ry="3" id="node10" />
<text x="460" y="220" id="node10-text" style="font-size:10px" >Node 10</text>
<rect x="600" y="200" width="80" height="40" rx="3" ry="3" id="node8" />
<text x="640" y="220" id="node8-text" style="font-size:10px" >Node 8</text>
<rect x="60" y="340" width="80" height="40" rx="3" ry="3" id="node6" />
<text x="100" y="360" id="node6-text" style="font-size:10px" >Node 6</text>
<rect x="240" y="340" width="80" height="40" rx="3" ry="3" id="node1" />
<text x="280" y="360" id="node1-text" style="font-size:10px" >Node 1</text>
<rect x="420" y="340" width="80" height="40" rx="3" ry="3" id="node3" />
<text x="460" y="360" id="node3-text" style="font-size:10px" >Node 3</text>
<rect x="600" y="340" width="80" height="40" rx="3" ry="3" id="node4" />
<text x="640" y="360" id="node4-text" style="font-size:10px" >Node 4</text>
<rect x="60" y="480" width="80" height="40" rx="3" ry="3" id="node12" />
<text x="100" y="500" id="node12-text" style="font-size:10px" >Node 12</text>
<rect x="240" y="480" width="80" height="40" rx="3" ry="3" id="node2" />
<text x="280" y="500" id="node2-text" style="font-size:10px" >Node 2</text>
<path d="M 420 220 L 320 220" class="path-line" marker-end="url(#arrow)" />
<path d="M 420 80 L 320 80" class="path-line" marker-end="url(#arrow)" />
<path d="M 120 100 L 120 120 L 160 120 L 160 260 L 260 260 L 260 340" class="path-line" marker-end="url(#arrow)" />
<path d="M 500 360 L 520 360 L 520 180 L 480 180 L 480 100" class="path-line" marker-end="url(#arrow)" />
<path d="M 320 500 L 440 500 L 440 380" class="path-line" marker-end="url(#arrow)" />
<path d="M 100 380 L 100 480" class="path-line" marker-end="url(#arrow)" />
<path d="M 260 200 L 260 180 L 220 180 L 220 80 L 140 80" class="path-line" marker-end="url(#arrow)" />
<path d="M 300 100 L 300 120 L 440 120 L 440 200" class="path-line" marker-end="url(#arrow)" />
<path d="M 280 380 L 280 480" class="path-line" marker-end="url(#arrow)" />
</g>
</svg>
