<?xml version="1.0"?>
<!-- Generated by SVGo -->
<svg width="680" height="500"
     style="background-color: white;"
     xmlns="http://www.w3.org/2000/svg"
     xmlns:xlink="http://www.w3.org/1999/xlink">
<g style="text-anchor:middle;font-family:sans;fill:none;stroke:black">
<defs>
<marker id="arrow" refX="10" refY="5" markerWidth="7" markerHeight="7" viewBox="0 0 10 10" fill="black" orient="auto-start-reverse" >
<path d="M 0 0 L 10 5 L 0 10 z" />
</marker>
</defs>
<rect x="60" y="60" width="120" height="60" rx="3" ry="3" id="a" />
<text x="120" y="90" id="a-text" style="font-size:10px" >Node 1</text>
<rect x="280" y="60" width="120" height="60" rx="3" ry="3" id="b" />
<text x="340" y="90" id="b-text" style="font-size:10px" >Node 2</text>
<rect x="500" y="60" width="120" height="60" rx="3" ry="3" id="c" />
<text x="560" y="90" id="c-text" style="font-size:10px" >Node 3</text>
<rect x="60" y="220" width="120" height="60" rx="3" ry="3" id="f" />
<text x="120" y="250" id="f-text" style="font-size:10px" >Node 4</text>
<rect x="280" y="220" width="120" height="60" rx="3" ry="3" id="d" />
<text x="340" y="250" id="d-text" style="font-size:10px" >Node 5</text>
<rect x="500" y="220" width="120" height="60" rx="3" ry="3" id="e" />
<text x="560" y="250" id="e-text" style="font-size:10px" >Node 6</text>
<rect x="60" y="380" width="120" height="60" rx="3" ry="3" id="g" />
<text x="120" y="410" id="g-text" style="font-size:10px" >Node 7</text>
<rect x="280" y="380" width="120" height="60" rx="3" ry="3" id="h" />
<text x="340" y="410" id="h-text" style="font-size:10px" >Node 8</text>
<rect x="500" y="380" width="120" height="60" rx="3" ry="3" id="i" />
<text x="560" y="410" id="i-text" style="font-size:10px" >Node 9</text>
<path d="M 180 100 L 280 100" class="path-line" marker-end="url(#arrow)" />
<path d="M 400 100 L 500 100" class="path-line" marker-end="url(#arrow)" />
<path d="M 520 120 L 520 140 L 380 140 L 380 220" class="path-line" marker-end="url(#arrow)" />
<path d="M 400 260 L 500 260" class="path-line" marker-end="url(#arrow)" />
<path d="M 560 120 L 560 220" class="path-line" marker-end="url(#arrow)" />
<path d="M 500 240 L 400 240" class="path-line" marker-end="url(#arrow)" />
<path d="M 280 260 L 180 260" class="path-line" marker-end="url(#arrow)" />
<path d="M 120 280 L 120 380" class="path-line" marker-end="url(#arrow)" />
<path d="M 160 280 L 160 300 L 300 300 L 300 380" class="path-line" marker-end="url(#arrow)" />
<path d="M 160 440 L 160 460 L 520 460 L 520 440" class="path-line" marker-end="url(#arrow)" />
</g>
</svg>
