<?xml version="1.0"?>
<!-- Generated by SVGo -->
<svg width="580" height="540"
     style="background-color: white;"
     xmlns="http://www.w3.org/2000/svg"
     xmlns:xlink="http://www.w3.org/1999/xlink">
<g style="text-anchor:middle;font-family:sans;fill:none;stroke:black">
<defs>
<marker id="arrow" refX="10" refY="5" markerWidth="7" markerHeight="7" viewBox="0 0 10 10" fill="black" orient="auto-start-reverse" >
<path d="M 0 0 L 10 5 L 0 10 z" />
</marker>
</defs>
<rect x="100" y="100" width="120" height="100" rx="3" ry="3" id="a" />
<text x="160" y="150" id="a-text" style="font-size:10px" >Node 1</text>
<rect x="360" y="100" width="120" height="100" rx="3" ry="3" id="b" />
<text x="420" y="150" id="b-text" style="font-size:10px" >Node 2</text>
<rect x="100" y="340" width="120" height="100" rx="3" ry="3" id="c" />
<text x="160" y="390" id="c-text" style="font-size:10px" >Node 3</text>
<rect x="360" y="340" width="120" height="100" rx="3" ry="3" id="d" />
<text x="420" y="390" id="d-text" style="font-size:10px" >Node 4</text>
<path d="M 220 160 L 360 160" class="path-line" marker-end="url(#arrow)" />
<path d="M 380 200 L 380 220 L 340 220 L 340 360 L 220 360" class="path-line" marker-end="url(#arrow)" />
<path d="M 220 400 L 360 400" class="path-line" marker-end="url(#arrow)" />
<path d="M 380 440 L 380 460 L 80 460 L 80 320 L 120 320 L 120 200" class="path-line" marker-end="url(#arrow)" />
</g>
</svg>
