<?xml version="1.0"?>
<!-- Generated by SVGo -->
<svg width="380" height="300"
     style="background-color: white;"
     xmlns="http://www.w3.org/2000/svg"
     xmlns:xlink="http://www.w3.org/1999/xlink">
<style type="text/css">
<![CDATA[
.class-1 { fill: azure; stroke: blue; stroke-width: 3;  }
.class-2 { stroke:green; }
]]>
</style>
<g style="text-anchor:middle;font-family:sans;fill:none;stroke:black">
<defs>
<marker id="arrow" refX="10" refY="5" markerWidth="7" markerHeight="7" viewBox="0 0 10 10" fill="black" orient="auto-start-reverse" >
<path d="M 0 0 L 10 5 L 0 10 z" />
</marker>
</defs>
<rect x="60" y="60" width="80" height="40" rx="3" ry="3" id="a"  style="fill:cyan; stroke:red;" />
<text x="100" y="80" id="a-text" style="font-size:10px" >Node 1</text>
<rect x="240" y="60" width="80" height="40" rx="3" ry="3" id="b" class="class-2" style="fill:cyan; stroke:magenta;" />
<text x="280" y="80" id="b-text" style="font-size:10px" >Node 2</text>
<rect x="60" y="200" width="80" height="40" rx="3" ry="3" id="c" class="class-1"  />
<text x="100" y="220" id="c-text" style="font-size:10px" >Node 3</text>
<rect x="240" y="200" width="80" height="40" rx="3" ry="3" id="d"   />
<text x="280" y="220" id="d-text" style="font-size:10px" >Node 4</text>
<path d="M 140 80 L 240 80" id="p1" class="path-line class-1"  marker-end="url(#arrow)" />
<path d="M 260 100 L 260 120 L 220 120 L 220 220 L 140 220" id="p2" class="path-line" style="stroke:green" marker-end="url(#arrow)" />
<path d="M 120 240 L 120 260 L 260 260 L 260 240" id="p3" class="path-line"  marker-end="url(#arrow)" />
</g>
</svg>
