<?xml version="1.0"?>
<!-- Generated by SVGo -->
<svg width="920" height="160"
     style="background-color: white;"
     xmlns="http://www.w3.org/2000/svg"
     xmlns:xlink="http://www.w3.org/1999/xlink">
<g style="text-anchor:middle;font-family:sans;fill:none;stroke:black">
<defs>
<marker id="arrow" refX="10" refY="5" markerWidth="7" markerHeight="7" viewBox="0 0 10 10" fill="black" orient="auto-start-reverse" >
<path d="M 0 0 L 10 5 L 0 10 z" />
</marker>
</defs>
<rect x="60" y="60" width="80" height="40" rx="3" ry="3" id="node1" />
<text x="100" y="80" id="node1-text" style="font-size:10px" >First Node</text>
<rect x="240" y="60" width="80" height="40" rx="3" ry="3" id="node2" />
<text x="280" y="80" id="node2-text" style="font-size:10px" >Second Node</text>
<rect x="420" y="60" width="80" height="40" rx="3" ry="3" id="node5" />
<text x="460" y="80" id="node5-text" style="font-size:10px" >Fifth Node</text>
<rect x="600" y="60" width="80" height="40" rx="3" ry="3" id="node3" />
<text x="640" y="80" id="node3-text" style="font-size:10px" >Third Node</text>
<rect x="780" y="60" width="80" height="40" rx="3" ry="3" id="node4" />
<text x="820" y="80" id="node4-text" style="font-size:10px" >Forth Node</text>
<path d="M 140 80 L 240 80" class="path-line" marker-end="url(#arrow)" />
<path d="M 620 100 L 620 120 L 300 120 L 300 100" class="path-line" marker-end="url(#arrow)" />
<path d="M 680 80 L 780 80" class="path-line" marker-end="url(#arrow)" />
<path d="M 500 80 L 600 80" class="path-line" marker-end="url(#arrow)" />
<path d="M 320 80 L 420 80" class="path-line" marker-end="url(#arrow)" />
</g>
</svg>
